<svg width="25" height="24" viewBox="0 0 25 24" fill="none" xmlns="http://www.w3.org/2000/svg">
<path d="M12.5 3.00002C10.6435 3.00002 8.86301 3.73752 7.55025 5.05028C6.2375 6.36303 5.5 8.14351 5.5 10C5.5 12.862 7.282 15.623 9.238 17.762C10.2381 18.8517 11.3294 19.854 12.5 20.758C12.6747 20.624 12.8797 20.4607 13.115 20.268C14.0548 19.4963 14.9393 18.6596 15.762 17.764C17.718 15.623 19.5 12.863 19.5 10C19.5 8.14351 18.7625 6.36303 17.4497 5.05028C16.137 3.73752 14.3565 3.00002 12.5 3.00002ZM12.5 23.214L11.933 22.824L11.93 22.822L11.924 22.817L11.904 22.803L11.829 22.75L11.559 22.553C10.1909 21.5248 8.91988 20.3733 7.762 19.113C5.718 16.875 3.5 13.636 3.5 9.99902C3.5 7.61207 4.44821 5.32289 6.13604 3.63506C7.82387 1.94724 10.1131 0.999023 12.5 0.999023C14.8869 0.999023 17.1761 1.94724 18.864 3.63506C20.5518 5.32289 21.5 7.61207 21.5 9.99902C21.5 13.636 19.282 16.876 17.238 19.111C16.0804 20.3713 14.8098 21.5228 13.442 22.551C13.3281 22.6361 13.213 22.7198 13.097 22.802L13.076 22.816L13.07 22.821L13.068 22.822L12.5 23.214ZM12.5 8.00002C11.9696 8.00002 11.4609 8.21074 11.0858 8.58581C10.7107 8.96088 10.5 9.46959 10.5 10C10.5 10.5305 10.7107 11.0392 11.0858 11.4142C11.4609 11.7893 11.9696 12 12.5 12C13.0304 12 13.5391 11.7893 13.9142 11.4142C14.2893 11.0392 14.5 10.5305 14.5 10C14.5 9.46959 14.2893 8.96088 13.9142 8.58581C13.5391 8.21074 13.0304 8.00002 12.5 8.00002ZM8.5 10C8.5 8.93916 8.92143 7.92174 9.67157 7.1716C10.4217 6.42145 11.4391 6.00002 12.5 6.00002C13.5609 6.00002 14.5783 6.42145 15.3284 7.1716C16.0786 7.92174 16.5 8.93916 16.5 10C16.5 11.0609 16.0786 12.0783 15.3284 12.8285C14.5783 13.5786 13.5609 14 12.5 14C11.4391 14 10.4217 13.5786 9.67157 12.8285C8.92143 12.0783 8.5 11.0609 8.5 10Z" fill="#BFBFBF"/>
</svg>
